<svg width="24" height="34" viewBox="0 0 24 34" fill="none" xmlns="http://www.w3.org/2000/svg">
<path d="M24 18.4658C24 20.542 23.2813 22.3169 21.8438 23.7903C19.0178 26.687 16.1919 29.5837 13.3659 32.4804C11.4057 34.4897 8.3347 34.5064 6.4235 32.5306C4.49597 30.5548 4.52864 27.4405 6.50518 25.4145C9.57616 22.2499 12.6635 19.102 15.7345 15.9542C17.1556 14.4807 17.2046 13.4426 15.9142 11.8352C15.7998 11.6845 15.7671 11.4501 15.6855 11.2492C15.8978 11.1654 16.1265 11.0315 16.3552 11.0148C20.5043 10.7468 24 14.1626 24 18.4658Z" fill="black"/>
<path d="M7.24879 22C4.05129 21.8008 1.83888 20.3232 0.595404 17.451C-0.583472 14.7282 0.0301893 11.524 2.06496 9.39893C4.6165 6.74258 7.18419 4.10283 9.76803 1.47968C11.7059 -0.495984 14.6935 -0.479382 16.5829 1.44647C18.4562 3.37233 18.4885 6.46034 16.5829 8.4526C14.4512 10.7271 12.255 12.9352 10.091 15.1599C9.33201 15.9402 8.55685 16.7039 7.814 17.5174C6.92581 18.4637 6.89351 19.7919 7.65251 20.7548C7.8786 21.0537 8.04009 21.4189 8.21773 21.751C7.86245 21.834 7.47487 21.9336 7.24879 22Z" fill="black"/>
</svg>
