<svg width="113" height="34" viewBox="0 0 113 34" fill="none" xmlns="http://www.w3.org/2000/svg">
<path d="M24 18.4658C24 20.542 23.2813 22.3169 21.8438 23.7903C19.0178 26.687 16.1919 29.5837 13.3659 32.4804C11.4057 34.4897 8.3347 34.5064 6.4235 32.5306C4.49597 30.5548 4.52864 27.4405 6.50518 25.4145C9.57616 22.2499 12.6635 19.102 15.7345 15.9542C17.1556 14.4807 17.2046 13.4426 15.9142 11.8352C15.7998 11.6845 15.7671 11.4501 15.6855 11.2492C15.8978 11.1654 16.1265 11.0315 16.3552 11.0148C20.5043 10.7468 24 14.1626 24 18.4658Z" fill="black"/>
<path d="M7.24879 22C4.05129 21.8008 1.83888 20.3232 0.595404 17.451C-0.583472 14.7282 0.0301893 11.524 2.06496 9.39893C4.6165 6.74258 7.18419 4.10283 9.76803 1.47968C11.7059 -0.495984 14.6935 -0.479382 16.5829 1.44647C18.4562 3.37233 18.4885 6.46034 16.5829 8.4526C14.4512 10.7271 12.255 12.9352 10.091 15.1599C9.33201 15.9402 8.55685 16.7039 7.814 17.5174C6.92581 18.4637 6.89351 19.7919 7.65251 20.7548C7.8786 21.0537 8.04009 21.4189 8.21773 21.751C7.86245 21.834 7.47487 21.9336 7.24879 22Z" fill="black"/>
<path d="M48 9.4826C49.3735 9.4826 50.6793 9.4826 52.0528 9.4826C52.1037 9.91821 52.1376 10.3538 52.1715 10.7056C53.189 10.2198 54.1386 9.58313 55.2069 9.28156C59.8702 8.00825 64.3809 11.1915 64.9235 16.0502C65.1948 18.5298 64.7709 20.8418 63.2277 22.8523C60.752 26.1026 56.1396 26.756 52.8159 24.3602C52.6463 24.2261 52.4598 24.1089 52.1546 23.8911C52.1546 26.6722 52.1546 29.3026 52.1546 32C50.7301 32 49.3905 32 48 32C48 24.4942 48 17.0052 48 9.4826ZM52.1376 17.3905C52.1376 20.0544 54.0368 21.9979 56.5635 21.9811C59.0732 21.9643 60.8707 20.0376 60.8707 17.3737C60.8707 14.7099 59.0562 12.7831 56.5465 12.7831C54.0029 12.7664 52.1207 14.7434 52.1376 17.3905Z" fill="black"/>
<path d="M112.983 18.7167C108.948 18.7167 104.998 18.7167 100.98 18.7167C101.353 20.4108 102.218 21.5627 103.777 22.1218C105.795 22.8502 107.609 22.2404 109.881 20.0381C110.627 20.9021 111.389 21.766 112.203 22.6978C111.084 24.1885 109.491 25.2727 107.456 25.747C102.659 26.8312 98.4711 24.3579 97.3014 19.7162C96.0299 14.7357 98.895 10.0432 103.761 9.14537C108.694 8.23059 112.949 11.7373 113 16.7347C113 17.3446 112.983 17.9714 112.983 18.7167ZM109.033 15.5319C108.999 13.9226 107.541 12.669 105.608 12.5335C103.523 12.3979 101.557 13.7532 101.285 15.5319C103.862 15.5319 106.439 15.5319 109.033 15.5319Z" fill="black"/>
<path d="M35.3292 19.9917C36.5437 21.7003 38.0411 22.5631 39.971 22.4278C40.5533 22.3939 41.1855 22.174 41.668 21.8526C42.4167 21.3282 42.3501 20.347 41.5349 19.924C40.8028 19.5519 39.971 19.3658 39.2057 19.0613C38.0244 18.6045 36.76 18.2493 35.6952 17.6064C33.4326 16.2361 33.0166 13.1572 34.697 11.0765C37.1094 8.06523 43.132 8.42049 45.1119 11.5501C44.3299 12.4298 43.5646 13.2757 42.7827 14.1384C41.8676 13.0388 40.7696 12.3452 39.3055 12.4806C38.9062 12.5144 38.4736 12.6328 38.1243 12.8189C37.2758 13.2757 37.2758 14.2399 38.1409 14.6459C38.9062 15.0181 39.7547 15.2042 40.5699 15.4918C41.485 15.8132 42.4167 16.1008 43.2984 16.4899C44.9122 17.2173 45.9271 18.4523 45.9936 20.3131C46.0768 22.2755 45.3448 23.8657 43.6811 24.8807C41.2687 26.3525 38.7232 26.2679 36.1777 25.236C34.6471 24.627 33.549 23.6119 33 22.4954C33.1165 22.3601 33.2496 22.2078 33.3827 22.0725C33.9816 21.4127 34.6138 20.7361 35.3292 19.9917Z" fill="black"/>
<path d="M97 22.5323C94.3786 25.7597 90.5959 26.7904 87.0454 25.3879C83.777 24.1038 81.7861 20.7581 82.0183 16.9732C82.2506 13.2051 84.507 10.2482 87.8584 9.31882C91.3259 8.35568 95.0754 9.63986 96.7843 12.2927C95.9548 13.1545 95.1584 13.9824 94.3454 14.8273C91.7572 12.4955 89.0031 12.2927 87.2279 14.2866C85.6186 16.0945 85.7347 19.3388 87.4768 20.9778C89.3516 22.752 92.172 22.4141 94.4948 19.9978C94.8764 20.454 95.2414 20.944 95.6561 21.3664C96.0875 21.772 96.552 22.1268 97 22.5323Z" fill="black"/>
<path d="M67 4C68.3765 4 69.6559 4 71 4C71 11.3445 71 18.6387 71 26C69.6721 26 68.3765 26 67 26C67 18.689 67 11.3613 67 4Z" fill="black"/>
<path d="M79 26C77.6337 26 76.3498 26 75 26C75 20.6723 75 15.3786 75 10C76.3004 10 77.6337 10 79 10C79 15.3277 79 20.6214 79 26Z" fill="black"/>
<path d="M74.0002 5.46719C74.0167 4.08566 75.0727 3.00018 76.4423 3.00018C77.8283 2.98373 78.9833 4.11856 78.9998 5.48364C79.0163 6.84872 77.8778 7.98355 76.4753 8C75.0562 8 73.9837 6.89807 74.0002 5.46719Z" fill="black"/>
</svg>
